<mxfile host="app.diagrams.net" modified="2023-12-02T02:23:44.730Z" agent="Mozilla/5.0 (Windows NT 10.0; Win64; x64) AppleWebKit/537.36 (KHTML, like Gecko) Chrome/119.0.0.0 Safari/537.36 Edg/119.0.0.0" etag="09dwWiWfzj5qFTObA4Ca" version="22.1.5" type="device">
  <diagram name="PÃ¡gina-1" id="7AKAMnoTI9akMSZus5dm">
    <mxGraphModel dx="8397" dy="5479" grid="1" gridSize="10" guides="1" tooltips="1" connect="1" arrows="1" fold="1" page="1" pageScale="1" pageWidth="827" pageHeight="1169" math="0" shadow="0">
      <root>
        <mxCell id="0" />
        <mxCell id="1" parent="0" />
        <mxCell id="BxjMq_bjidp_WkL2_Z5M-1" style="edgeStyle=orthogonalEdgeStyle;rounded=0;orthogonalLoop=1;jettySize=auto;html=1;endArrow=none;endFill=0;startArrow=diamondThin;startFill=1;startSize=29;entryX=0.5;entryY=0;entryDx=0;entryDy=0;endSize=9;" edge="1" parent="1" source="BxjMq_bjidp_WkL2_Z5M-3" target="BxjMq_bjidp_WkL2_Z5M-77">
          <mxGeometry relative="1" as="geometry">
            <Array as="points">
              <mxPoint x="-50" y="-1030" />
              <mxPoint x="1355" y="-1030" />
            </Array>
            <mxPoint x="-50" y="-909" as="sourcePoint" />
            <mxPoint x="1415" y="-930" as="targetPoint" />
          </mxGeometry>
        </mxCell>
        <mxCell id="BxjMq_bjidp_WkL2_Z5M-2" style="edgeStyle=orthogonalEdgeStyle;rounded=0;orthogonalLoop=1;jettySize=auto;html=1;entryX=0.25;entryY=0;entryDx=0;entryDy=0;endArrow=none;endFill=0;startArrow=diamondThin;startFill=1;startSize=29;" edge="1" parent="1" source="BxjMq_bjidp_WkL2_Z5M-3" target="BxjMq_bjidp_WkL2_Z5M-30">
          <mxGeometry relative="1" as="geometry">
            <Array as="points">
              <mxPoint x="10" y="-500" />
              <mxPoint x="490" y="-500" />
            </Array>
          </mxGeometry>
        </mxCell>
        <mxCell id="BxjMq_bjidp_WkL2_Z5M-3" value="Sistema" style="swimlane;fontStyle=1;align=center;verticalAlign=top;childLayout=stackLayout;horizontal=1;startSize=26;horizontalStack=0;resizeParent=1;resizeParentMax=0;resizeLast=0;collapsible=1;marginBottom=0;whiteSpace=wrap;html=1;" vertex="1" parent="1">
          <mxGeometry x="-620" y="-890" width="850" height="272" as="geometry" />
        </mxCell>
        <mxCell id="BxjMq_bjidp_WkL2_Z5M-4" value="" style="line;strokeWidth=1;fillColor=none;align=left;verticalAlign=middle;spacingTop=-1;spacingLeft=3;spacingRight=3;rotatable=0;labelPosition=right;points=[];portConstraint=eastwest;strokeColor=inherit;" vertex="1" parent="BxjMq_bjidp_WkL2_Z5M-3">
          <mxGeometry y="26" width="850" height="8" as="geometry" />
        </mxCell>
        <mxCell id="BxjMq_bjidp_WkL2_Z5M-5" value="+ crearAmenity(codigo:string, nombre:string, descripcion:string, precioReserva:float):void" style="text;strokeColor=none;fillColor=none;align=left;verticalAlign=top;spacingLeft=4;spacingRight=4;overflow=hidden;rotatable=0;points=[[0,0.5],[1,0.5]];portConstraint=eastwest;whiteSpace=wrap;html=1;" vertex="1" parent="BxjMq_bjidp_WkL2_Z5M-3">
          <mxGeometry y="34" width="850" height="26" as="geometry" />
        </mxCell>
        <mxCell id="BxjMq_bjidp_WkL2_Z5M-6" value="+ crearHabitacion(nroHab:int, nombrePopular:string, tamanio:float, capacidad:int, nroCamas:int, precioPorNoche:float):void" style="text;strokeColor=none;fillColor=none;align=left;verticalAlign=top;spacingLeft=4;spacingRight=4;overflow=hidden;rotatable=0;points=[[0,0.5],[1,0.5]];portConstraint=eastwest;whiteSpace=wrap;html=1;" vertex="1" parent="BxjMq_bjidp_WkL2_Z5M-3">
          <mxGeometry y="60" width="850" height="26" as="geometry" />
        </mxCell>
        <mxCell id="BxjMq_bjidp_WkL2_Z5M-7" value="+ crearProductoBar(codProd:string, nombre:string, descripcion:string, precioBase:float):void" style="text;strokeColor=none;fillColor=none;align=left;verticalAlign=top;spacingLeft=4;spacingRight=4;overflow=hidden;rotatable=0;points=[[0,0.5],[1,0.5]];portConstraint=eastwest;whiteSpace=wrap;html=1;" vertex="1" parent="BxjMq_bjidp_WkL2_Z5M-3">
          <mxGeometry y="86" width="850" height="26" as="geometry" />
        </mxCell>
        <mxCell id="BxjMq_bjidp_WkL2_Z5M-8" value="+ crearReservaAmenity(nroHab:int, identHuesped:string, nombreAmenitie:string, fechaReserva:Fecha, horaReserva:Hora):void" style="text;strokeColor=none;fillColor=none;align=left;verticalAlign=top;spacingLeft=4;spacingRight=4;overflow=hidden;rotatable=0;points=[[0,0.5],[1,0.5]];portConstraint=eastwest;whiteSpace=wrap;html=1;" vertex="1" parent="BxjMq_bjidp_WkL2_Z5M-3">
          <mxGeometry y="112" width="850" height="26" as="geometry" />
        </mxCell>
        <mxCell id="BxjMq_bjidp_WkL2_Z5M-9" value="+ crearReservaHab(titular:Cliente, nroHab:int, fechaEntrada:Fecha, fechaSalida:Fecha, seniaMin: float):void" style="text;strokeColor=none;fillColor=none;align=left;verticalAlign=top;spacingLeft=4;spacingRight=4;overflow=hidden;rotatable=0;points=[[0,0.5],[1,0.5]];portConstraint=eastwest;whiteSpace=wrap;html=1;" vertex="1" parent="BxjMq_bjidp_WkL2_Z5M-3">
          <mxGeometry y="138" width="850" height="30" as="geometry" />
        </mxCell>
        <mxCell id="BxjMq_bjidp_WkL2_Z5M-10" value="+ crearCompra(nroHab:int, codProd:string, cantProd:int, fechaCompra:Fecha): void" style="text;strokeColor=none;fillColor=none;align=left;verticalAlign=top;spacingLeft=4;spacingRight=4;overflow=hidden;rotatable=0;points=[[0,0.5],[1,0.5]];portConstraint=eastwest;whiteSpace=wrap;html=1;" vertex="1" parent="BxjMq_bjidp_WkL2_Z5M-3">
          <mxGeometry y="168" width="850" height="26" as="geometry" />
        </mxCell>
        <mxCell id="BxjMq_bjidp_WkL2_Z5M-11" value="+ checkIn(nroHab:int, identTitular:string, fechaLlegada:Fecha, horaLlegada:Hora, acompanantes:Lista de clientes):void" style="text;strokeColor=none;fillColor=none;align=left;verticalAlign=top;spacingLeft=4;spacingRight=4;overflow=hidden;rotatable=0;points=[[0,0.5],[1,0.5]];portConstraint=eastwest;whiteSpace=wrap;html=1;" vertex="1" parent="BxjMq_bjidp_WkL2_Z5M-3">
          <mxGeometry y="194" width="850" height="26" as="geometry" />
        </mxCell>
        <mxCell id="BxjMq_bjidp_WkL2_Z5M-12" value="+ checkOut(nroHab:int, fechaOut:Fecha, horaOut:Hora):void" style="text;strokeColor=none;fillColor=none;align=left;verticalAlign=top;spacingLeft=4;spacingRight=4;overflow=hidden;rotatable=0;points=[[0,0.5],[1,0.5]];portConstraint=eastwest;whiteSpace=wrap;html=1;" vertex="1" parent="BxjMq_bjidp_WkL2_Z5M-3">
          <mxGeometry y="220" width="850" height="26" as="geometry" />
        </mxCell>
        <mxCell id="BxjMq_bjidp_WkL2_Z5M-13" value="- buscarHabDisponible(fechaEntrada:Fecha, fechaSalida:Fecha, nroCamas:int, capacidad:int, tamanio:float):habitacion" style="text;strokeColor=none;fillColor=none;align=left;verticalAlign=top;spacingLeft=4;spacingRight=4;overflow=hidden;rotatable=0;points=[[0,0.5],[1,0.5]];portConstraint=eastwest;whiteSpace=wrap;html=1;" vertex="1" parent="BxjMq_bjidp_WkL2_Z5M-3">
          <mxGeometry y="246" width="850" height="26" as="geometry" />
        </mxCell>
        <mxCell id="BxjMq_bjidp_WkL2_Z5M-14" value="Habitacion" style="swimlane;fontStyle=1;align=center;verticalAlign=top;childLayout=stackLayout;horizontal=1;startSize=26;horizontalStack=0;resizeParent=1;resizeParentMax=0;resizeLast=0;collapsible=1;marginBottom=0;whiteSpace=wrap;html=1;" vertex="1" parent="1">
          <mxGeometry x="-600" y="-320" width="720" height="402" as="geometry" />
        </mxCell>
        <mxCell id="BxjMq_bjidp_WkL2_Z5M-15" value="- nroHabitacion:int" style="text;strokeColor=none;fillColor=none;align=left;verticalAlign=top;spacingLeft=4;spacingRight=4;overflow=hidden;rotatable=0;points=[[0,0.5],[1,0.5]];portConstraint=eastwest;whiteSpace=wrap;html=1;" vertex="1" parent="BxjMq_bjidp_WkL2_Z5M-14">
          <mxGeometry y="26" width="720" height="26" as="geometry" />
        </mxCell>
        <mxCell id="BxjMq_bjidp_WkL2_Z5M-16" value="- nombrePopular:string" style="text;strokeColor=none;fillColor=none;align=left;verticalAlign=top;spacingLeft=4;spacingRight=4;overflow=hidden;rotatable=0;points=[[0,0.5],[1,0.5]];portConstraint=eastwest;whiteSpace=wrap;html=1;" vertex="1" parent="BxjMq_bjidp_WkL2_Z5M-14">
          <mxGeometry y="52" width="720" height="26" as="geometry" />
        </mxCell>
        <mxCell id="BxjMq_bjidp_WkL2_Z5M-17" value="- tamanio:float" style="text;strokeColor=none;fillColor=none;align=left;verticalAlign=top;spacingLeft=4;spacingRight=4;overflow=hidden;rotatable=0;points=[[0,0.5],[1,0.5]];portConstraint=eastwest;whiteSpace=wrap;html=1;" vertex="1" parent="BxjMq_bjidp_WkL2_Z5M-14">
          <mxGeometry y="78" width="720" height="26" as="geometry" />
        </mxCell>
        <mxCell id="BxjMq_bjidp_WkL2_Z5M-18" value="- capacidad:int" style="text;strokeColor=none;fillColor=none;align=left;verticalAlign=top;spacingLeft=4;spacingRight=4;overflow=hidden;rotatable=0;points=[[0,0.5],[1,0.5]];portConstraint=eastwest;whiteSpace=wrap;html=1;" vertex="1" parent="BxjMq_bjidp_WkL2_Z5M-14">
          <mxGeometry y="104" width="720" height="26" as="geometry" />
        </mxCell>
        <mxCell id="BxjMq_bjidp_WkL2_Z5M-19" value="- nroCamas:int" style="text;strokeColor=none;fillColor=none;align=left;verticalAlign=top;spacingLeft=4;spacingRight=4;overflow=hidden;rotatable=0;points=[[0,0.5],[1,0.5]];portConstraint=eastwest;whiteSpace=wrap;html=1;" vertex="1" parent="BxjMq_bjidp_WkL2_Z5M-14">
          <mxGeometry y="130" width="720" height="26" as="geometry" />
        </mxCell>
        <mxCell id="BxjMq_bjidp_WkL2_Z5M-20" value="- precioPorNoche:float" style="text;strokeColor=none;fillColor=none;align=left;verticalAlign=top;spacingLeft=4;spacingRight=4;overflow=hidden;rotatable=0;points=[[0,0.5],[1,0.5]];portConstraint=eastwest;whiteSpace=wrap;html=1;" vertex="1" parent="BxjMq_bjidp_WkL2_Z5M-14">
          <mxGeometry y="156" width="720" height="26" as="geometry" />
        </mxCell>
        <mxCell id="BxjMq_bjidp_WkL2_Z5M-21" value="" style="line;strokeWidth=1;fillColor=none;align=left;verticalAlign=middle;spacingTop=-1;spacingLeft=3;spacingRight=3;rotatable=0;labelPosition=right;points=[];portConstraint=eastwest;strokeColor=inherit;" vertex="1" parent="BxjMq_bjidp_WkL2_Z5M-14">
          <mxGeometry y="182" width="720" height="8" as="geometry" />
        </mxCell>
        <mxCell id="BxjMq_bjidp_WkL2_Z5M-22" value="+ getNroHab(): int" style="text;strokeColor=none;fillColor=none;align=left;verticalAlign=top;spacingLeft=4;spacingRight=4;overflow=hidden;rotatable=0;points=[[0,0.5],[1,0.5]];portConstraint=eastwest;whiteSpace=wrap;html=1;" vertex="1" parent="BxjMq_bjidp_WkL2_Z5M-14">
          <mxGeometry y="190" width="720" height="26" as="geometry" />
        </mxCell>
        <mxCell id="BxjMq_bjidp_WkL2_Z5M-23" value="+ getNroCamas(): int" style="text;strokeColor=none;fillColor=none;align=left;verticalAlign=top;spacingLeft=4;spacingRight=4;overflow=hidden;rotatable=0;points=[[0,0.5],[1,0.5]];portConstraint=eastwest;whiteSpace=wrap;html=1;" vertex="1" parent="BxjMq_bjidp_WkL2_Z5M-14">
          <mxGeometry y="216" width="720" height="26" as="geometry" />
        </mxCell>
        <mxCell id="BxjMq_bjidp_WkL2_Z5M-24" value="+ getCapacidad(): int" style="text;strokeColor=none;fillColor=none;align=left;verticalAlign=top;spacingLeft=4;spacingRight=4;overflow=hidden;rotatable=0;points=[[0,0.5],[1,0.5]];portConstraint=eastwest;whiteSpace=wrap;html=1;" vertex="1" parent="BxjMq_bjidp_WkL2_Z5M-14">
          <mxGeometry y="242" width="720" height="26" as="geometry" />
        </mxCell>
        <mxCell id="BxjMq_bjidp_WkL2_Z5M-25" value="+ getTamanio(): int" style="text;strokeColor=none;fillColor=none;align=left;verticalAlign=top;spacingLeft=4;spacingRight=4;overflow=hidden;rotatable=0;points=[[0,0.5],[1,0.5]];portConstraint=eastwest;whiteSpace=wrap;html=1;" vertex="1" parent="BxjMq_bjidp_WkL2_Z5M-14">
          <mxGeometry y="268" width="720" height="26" as="geometry" />
        </mxCell>
        <mxCell id="BxjMq_bjidp_WkL2_Z5M-26" value="+ getPrecioPorNoche():float" style="text;strokeColor=none;fillColor=none;align=left;verticalAlign=top;spacingLeft=4;spacingRight=4;overflow=hidden;rotatable=0;points=[[0,0.5],[1,0.5]];portConstraint=eastwest;whiteSpace=wrap;html=1;" vertex="1" parent="BxjMq_bjidp_WkL2_Z5M-14">
          <mxGeometry y="294" width="720" height="26" as="geometry" />
        </mxCell>
        <mxCell id="BxjMq_bjidp_WkL2_Z5M-27" value="+ hayDisponibilidad(fechaEntrada:Fecha, fechaSalida:Fecha): tipoEstado {Reservada, Ocupada, Libre}" style="text;align=left;verticalAlign=top;spacingLeft=4;spacingRight=4;overflow=hidden;rotatable=0;points=[[0,0.5],[1,0.5]];portConstraint=eastwest;whiteSpace=wrap;html=1;" vertex="1" parent="BxjMq_bjidp_WkL2_Z5M-14">
          <mxGeometry y="320" width="720" height="30" as="geometry" />
        </mxCell>
        <mxCell id="BxjMq_bjidp_WkL2_Z5M-28" value="+ costoTotalReserva(fechaE: Fecha, fechaS: Fecha):float" style="text;strokeColor=none;fillColor=none;align=left;verticalAlign=top;spacingLeft=4;spacingRight=4;overflow=hidden;rotatable=0;points=[[0,0.5],[1,0.5]];portConstraint=eastwest;whiteSpace=wrap;html=1;" vertex="1" parent="BxjMq_bjidp_WkL2_Z5M-14">
          <mxGeometry y="350" width="720" height="26" as="geometry" />
        </mxCell>
        <mxCell id="BxjMq_bjidp_WkL2_Z5M-29" value="+ agregarReserva(reserva):void" style="text;strokeColor=none;fillColor=none;align=left;verticalAlign=top;spacingLeft=4;spacingRight=4;overflow=hidden;rotatable=0;points=[[0,0.5],[1,0.5]];portConstraint=eastwest;whiteSpace=wrap;html=1;" vertex="1" parent="BxjMq_bjidp_WkL2_Z5M-14">
          <mxGeometry y="376" width="720" height="26" as="geometry" />
        </mxCell>
        <mxCell id="BxjMq_bjidp_WkL2_Z5M-30" value="ReservaHabitacion" style="swimlane;fontStyle=1;align=center;verticalAlign=top;childLayout=stackLayout;horizontal=1;startSize=26;horizontalStack=0;resizeParent=1;resizeParentMax=0;resizeLast=0;collapsible=1;marginBottom=0;whiteSpace=wrap;html=1;" vertex="1" parent="1">
          <mxGeometry x="424" y="-265" width="456" height="688" as="geometry" />
        </mxCell>
        <mxCell id="BxjMq_bjidp_WkL2_Z5M-31" value="- &lt;u&gt;autonumerico:int&lt;/u&gt;" style="text;strokeColor=none;fillColor=none;align=left;verticalAlign=top;spacingLeft=4;spacingRight=4;overflow=hidden;rotatable=0;points=[[0,0.5],[1,0.5]];portConstraint=eastwest;whiteSpace=wrap;html=1;" vertex="1" parent="BxjMq_bjidp_WkL2_Z5M-30">
          <mxGeometry y="26" width="456" height="26" as="geometry" />
        </mxCell>
        <mxCell id="BxjMq_bjidp_WkL2_Z5M-32" value="- nroReserva:int" style="text;strokeColor=none;fillColor=none;align=left;verticalAlign=top;spacingLeft=4;spacingRight=4;overflow=hidden;rotatable=0;points=[[0,0.5],[1,0.5]];portConstraint=eastwest;whiteSpace=wrap;html=1;" vertex="1" parent="BxjMq_bjidp_WkL2_Z5M-30">
          <mxGeometry y="52" width="456" height="26" as="geometry" />
        </mxCell>
        <mxCell id="BxjMq_bjidp_WkL2_Z5M-33" value="- seniaMin:float" style="text;strokeColor=none;fillColor=none;align=left;verticalAlign=top;spacingLeft=4;spacingRight=4;overflow=hidden;rotatable=0;points=[[0,0.5],[1,0.5]];portConstraint=eastwest;whiteSpace=wrap;html=1;" vertex="1" parent="BxjMq_bjidp_WkL2_Z5M-30">
          <mxGeometry y="78" width="456" height="26" as="geometry" />
        </mxCell>
        <mxCell id="BxjMq_bjidp_WkL2_Z5M-34" value="- fechaEntrada:Fecha" style="text;strokeColor=none;fillColor=none;align=left;verticalAlign=top;spacingLeft=4;spacingRight=4;overflow=hidden;rotatable=0;points=[[0,0.5],[1,0.5]];portConstraint=eastwest;whiteSpace=wrap;html=1;" vertex="1" parent="BxjMq_bjidp_WkL2_Z5M-30">
          <mxGeometry y="104" width="456" height="26" as="geometry" />
        </mxCell>
        <mxCell id="BxjMq_bjidp_WkL2_Z5M-35" value="- fechaSalida:Fecha" style="text;strokeColor=none;fillColor=none;align=left;verticalAlign=top;spacingLeft=4;spacingRight=4;overflow=hidden;rotatable=0;points=[[0,0.5],[1,0.5]];portConstraint=eastwest;whiteSpace=wrap;html=1;" vertex="1" parent="BxjMq_bjidp_WkL2_Z5M-30">
          <mxGeometry y="130" width="456" height="26" as="geometry" />
        </mxCell>
        <mxCell id="BxjMq_bjidp_WkL2_Z5M-36" value="- fechaIn:Fecha" style="text;strokeColor=none;fillColor=none;align=left;verticalAlign=top;spacingLeft=4;spacingRight=4;overflow=hidden;rotatable=0;points=[[0,0.5],[1,0.5]];portConstraint=eastwest;whiteSpace=wrap;html=1;" vertex="1" parent="BxjMq_bjidp_WkL2_Z5M-30">
          <mxGeometry y="156" width="456" height="26" as="geometry" />
        </mxCell>
        <mxCell id="BxjMq_bjidp_WkL2_Z5M-37" value="- horaIn: Hora" style="text;strokeColor=none;fillColor=none;align=left;verticalAlign=top;spacingLeft=4;spacingRight=4;overflow=hidden;rotatable=0;points=[[0,0.5],[1,0.5]];portConstraint=eastwest;whiteSpace=wrap;html=1;" vertex="1" parent="BxjMq_bjidp_WkL2_Z5M-30">
          <mxGeometry y="182" width="456" height="26" as="geometry" />
        </mxCell>
        <mxCell id="BxjMq_bjidp_WkL2_Z5M-38" value="- fechaOut:Fecha" style="text;strokeColor=none;fillColor=none;align=left;verticalAlign=top;spacingLeft=4;spacingRight=4;overflow=hidden;rotatable=0;points=[[0,0.5],[1,0.5]];portConstraint=eastwest;whiteSpace=wrap;html=1;" vertex="1" parent="BxjMq_bjidp_WkL2_Z5M-30">
          <mxGeometry y="208" width="456" height="26" as="geometry" />
        </mxCell>
        <mxCell id="BxjMq_bjidp_WkL2_Z5M-39" value="- horaOut: Hora" style="text;strokeColor=none;fillColor=none;align=left;verticalAlign=top;spacingLeft=4;spacingRight=4;overflow=hidden;rotatable=0;points=[[0,0.5],[1,0.5]];portConstraint=eastwest;whiteSpace=wrap;html=1;" vertex="1" parent="BxjMq_bjidp_WkL2_Z5M-30">
          <mxGeometry y="234" width="456" height="26" as="geometry" />
        </mxCell>
        <mxCell id="BxjMq_bjidp_WkL2_Z5M-40" value="" style="line;strokeWidth=1;fillColor=none;align=left;verticalAlign=middle;spacingTop=-1;spacingLeft=3;spacingRight=3;rotatable=0;labelPosition=right;points=[];portConstraint=eastwest;strokeColor=inherit;" vertex="1" parent="BxjMq_bjidp_WkL2_Z5M-30">
          <mxGeometry y="260" width="456" height="8" as="geometry" />
        </mxCell>
        <mxCell id="BxjMq_bjidp_WkL2_Z5M-41" value="+ getFechaEntrada(): Fecha" style="text;strokeColor=none;fillColor=none;align=left;verticalAlign=top;spacingLeft=4;spacingRight=4;overflow=hidden;rotatable=0;points=[[0,0.5],[1,0.5]];portConstraint=eastwest;whiteSpace=wrap;html=1;" vertex="1" parent="BxjMq_bjidp_WkL2_Z5M-30">
          <mxGeometry y="268" width="456" height="26" as="geometry" />
        </mxCell>
        <mxCell id="BxjMq_bjidp_WkL2_Z5M-42" value="+ getFechaIn(): Fecha" style="text;strokeColor=none;fillColor=none;align=left;verticalAlign=top;spacingLeft=4;spacingRight=4;overflow=hidden;rotatable=0;points=[[0,0.5],[1,0.5]];portConstraint=eastwest;whiteSpace=wrap;html=1;" vertex="1" parent="BxjMq_bjidp_WkL2_Z5M-30">
          <mxGeometry y="294" width="456" height="26" as="geometry" />
        </mxCell>
        <mxCell id="BxjMq_bjidp_WkL2_Z5M-43" value="+ getHoraIn(): Fecha" style="text;strokeColor=none;fillColor=none;align=left;verticalAlign=top;spacingLeft=4;spacingRight=4;overflow=hidden;rotatable=0;points=[[0,0.5],[1,0.5]];portConstraint=eastwest;whiteSpace=wrap;html=1;" vertex="1" parent="BxjMq_bjidp_WkL2_Z5M-30">
          <mxGeometry y="320" width="456" height="26" as="geometry" />
        </mxCell>
        <mxCell id="BxjMq_bjidp_WkL2_Z5M-44" value="+ getFechaOut(): Fecha" style="text;strokeColor=none;fillColor=none;align=left;verticalAlign=top;spacingLeft=4;spacingRight=4;overflow=hidden;rotatable=0;points=[[0,0.5],[1,0.5]];portConstraint=eastwest;whiteSpace=wrap;html=1;" vertex="1" parent="BxjMq_bjidp_WkL2_Z5M-30">
          <mxGeometry y="346" width="456" height="26" as="geometry" />
        </mxCell>
        <mxCell id="BxjMq_bjidp_WkL2_Z5M-45" value="+ getHoraOut(): Fecha" style="text;strokeColor=none;fillColor=none;align=left;verticalAlign=top;spacingLeft=4;spacingRight=4;overflow=hidden;rotatable=0;points=[[0,0.5],[1,0.5]];portConstraint=eastwest;whiteSpace=wrap;html=1;" vertex="1" parent="BxjMq_bjidp_WkL2_Z5M-30">
          <mxGeometry y="372" width="456" height="26" as="geometry" />
        </mxCell>
        <mxCell id="BxjMq_bjidp_WkL2_Z5M-46" value="+ getFechaSalida(): Fecha" style="text;strokeColor=none;fillColor=none;align=left;verticalAlign=top;spacingLeft=4;spacingRight=4;overflow=hidden;rotatable=0;points=[[0,0.5],[1,0.5]];portConstraint=eastwest;whiteSpace=wrap;html=1;" vertex="1" parent="BxjMq_bjidp_WkL2_Z5M-30">
          <mxGeometry y="398" width="456" height="26" as="geometry" />
        </mxCell>
        <mxCell id="BxjMq_bjidp_WkL2_Z5M-47" value="+ getTitular():Cliente" style="text;strokeColor=none;fillColor=none;align=left;verticalAlign=top;spacingLeft=4;spacingRight=4;overflow=hidden;rotatable=0;points=[[0,0.5],[1,0.5]];portConstraint=eastwest;whiteSpace=wrap;html=1;" vertex="1" parent="BxjMq_bjidp_WkL2_Z5M-30">
          <mxGeometry y="424" width="456" height="26" as="geometry" />
        </mxCell>
        <mxCell id="BxjMq_bjidp_WkL2_Z5M-48" value="+ getHabitacion(): Habitacion" style="text;strokeColor=none;fillColor=none;align=left;verticalAlign=top;spacingLeft=4;spacingRight=4;overflow=hidden;rotatable=0;points=[[0,0.5],[1,0.5]];portConstraint=eastwest;whiteSpace=wrap;html=1;" vertex="1" parent="BxjMq_bjidp_WkL2_Z5M-30">
          <mxGeometry y="450" width="456" height="26" as="geometry" />
        </mxCell>
        <mxCell id="BxjMq_bjidp_WkL2_Z5M-49" value="+ verificarTitular(identificacion: string):bool" style="text;strokeColor=none;fillColor=none;align=left;verticalAlign=top;spacingLeft=4;spacingRight=4;overflow=hidden;rotatable=0;points=[[0,0.5],[1,0.5]];portConstraint=eastwest;whiteSpace=wrap;html=1;" vertex="1" parent="BxjMq_bjidp_WkL2_Z5M-30">
          <mxGeometry y="476" width="456" height="26" as="geometry" />
        </mxCell>
        <mxCell id="BxjMq_bjidp_WkL2_Z5M-50" value="+ verificarAcompanante(identificacion: string):bool" style="text;strokeColor=none;fillColor=none;align=left;verticalAlign=top;spacingLeft=4;spacingRight=4;overflow=hidden;rotatable=0;points=[[0,0.5],[1,0.5]];portConstraint=eastwest;whiteSpace=wrap;html=1;" vertex="1" parent="BxjMq_bjidp_WkL2_Z5M-30">
          <mxGeometry y="502" width="456" height="26" as="geometry" />
        </mxCell>
        <mxCell id="BxjMq_bjidp_WkL2_Z5M-51" value="+ agregarReservaAmenity(reserva:ReservaAmenity): void" style="text;strokeColor=none;fillColor=none;align=left;verticalAlign=top;spacingLeft=4;spacingRight=4;overflow=hidden;rotatable=0;points=[[0,0.5],[1,0.5]];portConstraint=eastwest;whiteSpace=wrap;html=1;" vertex="1" parent="BxjMq_bjidp_WkL2_Z5M-30">
          <mxGeometry y="528" width="456" height="26" as="geometry" />
        </mxCell>
        <mxCell id="BxjMq_bjidp_WkL2_Z5M-52" value="+ crearCompra(prod:ProductoAlimenticio, cantProd:int, fechaCompra:Fecha): void" style="text;strokeColor=none;fillColor=none;align=left;verticalAlign=top;spacingLeft=4;spacingRight=4;overflow=hidden;rotatable=0;points=[[0,0.5],[1,0.5]];portConstraint=eastwest;whiteSpace=wrap;html=1;" vertex="1" parent="BxjMq_bjidp_WkL2_Z5M-30">
          <mxGeometry y="554" width="456" height="26" as="geometry" />
        </mxCell>
        <mxCell id="BxjMq_bjidp_WkL2_Z5M-53" value="+ checkIn(fechaIn:Fecha, horaIn:Hora , acompanantes:Clientes):void" style="text;strokeColor=none;fillColor=none;align=left;verticalAlign=top;spacingLeft=4;spacingRight=4;overflow=hidden;rotatable=0;points=[[0,0.5],[1,0.5]];portConstraint=eastwest;whiteSpace=wrap;html=1;" vertex="1" parent="BxjMq_bjidp_WkL2_Z5M-30">
          <mxGeometry y="580" width="456" height="26" as="geometry" />
        </mxCell>
        <mxCell id="BxjMq_bjidp_WkL2_Z5M-54" value="+ checkOut(fechaOut:Fecha, horaOut:Hora): void" style="text;strokeColor=none;fillColor=none;align=left;verticalAlign=top;spacingLeft=4;spacingRight=4;overflow=hidden;rotatable=0;points=[[0,0.5],[1,0.5]];portConstraint=eastwest;whiteSpace=wrap;html=1;" vertex="1" parent="BxjMq_bjidp_WkL2_Z5M-30">
          <mxGeometry y="606" width="456" height="26" as="geometry" />
        </mxCell>
        <mxCell id="BxjMq_bjidp_WkL2_Z5M-55" value="- mostrarPagoTotal(): void" style="text;strokeColor=none;fillColor=none;align=left;verticalAlign=top;spacingLeft=4;spacingRight=4;overflow=hidden;rotatable=0;points=[[0,0.5],[1,0.5]];portConstraint=eastwest;whiteSpace=wrap;html=1;" vertex="1" parent="BxjMq_bjidp_WkL2_Z5M-30">
          <mxGeometry y="632" width="456" height="28" as="geometry" />
        </mxCell>
        <mxCell id="BxjMq_bjidp_WkL2_Z5M-56" value="- calcularPenalizacion(horaSalida:Hora):float" style="text;strokeColor=none;fillColor=none;align=left;verticalAlign=top;spacingLeft=4;spacingRight=4;overflow=hidden;rotatable=0;points=[[0,0.5],[1,0.5]];portConstraint=eastwest;whiteSpace=wrap;html=1;" vertex="1" parent="BxjMq_bjidp_WkL2_Z5M-30">
          <mxGeometry y="660" width="456" height="28" as="geometry" />
        </mxCell>
        <mxCell id="BxjMq_bjidp_WkL2_Z5M-57" style="edgeStyle=orthogonalEdgeStyle;rounded=0;orthogonalLoop=1;jettySize=auto;html=1;endArrow=diamondThin;endFill=1;endSize=29;" edge="1" parent="1" source="BxjMq_bjidp_WkL2_Z5M-59" target="BxjMq_bjidp_WkL2_Z5M-122">
          <mxGeometry relative="1" as="geometry">
            <Array as="points">
              <mxPoint x="945" y="-730" />
            </Array>
          </mxGeometry>
        </mxCell>
        <mxCell id="BxjMq_bjidp_WkL2_Z5M-58" style="edgeStyle=orthogonalEdgeStyle;rounded=0;orthogonalLoop=1;jettySize=auto;html=1;endArrow=none;endFill=0;startArrow=diamondThin;startFill=0;startSize=29;" edge="1" parent="1" source="BxjMq_bjidp_WkL2_Z5M-59" target="BxjMq_bjidp_WkL2_Z5M-68">
          <mxGeometry relative="1" as="geometry" />
        </mxCell>
        <mxCell id="BxjMq_bjidp_WkL2_Z5M-59" value="Compra" style="swimlane;fontStyle=1;align=center;verticalAlign=top;childLayout=stackLayout;horizontal=1;startSize=26;horizontalStack=0;resizeParent=1;resizeParentMax=0;resizeLast=0;collapsible=1;marginBottom=0;whiteSpace=wrap;html=1;" vertex="1" parent="1">
          <mxGeometry x="690" y="-823" width="160" height="190" as="geometry" />
        </mxCell>
        <mxCell id="BxjMq_bjidp_WkL2_Z5M-60" value="- &lt;u&gt;autonumerico:int&lt;/u&gt;" style="text;strokeColor=none;fillColor=none;align=left;verticalAlign=top;spacingLeft=4;spacingRight=4;overflow=hidden;rotatable=0;points=[[0,0.5],[1,0.5]];portConstraint=eastwest;whiteSpace=wrap;html=1;" vertex="1" parent="BxjMq_bjidp_WkL2_Z5M-59">
          <mxGeometry y="26" width="160" height="26" as="geometry" />
        </mxCell>
        <mxCell id="BxjMq_bjidp_WkL2_Z5M-61" value="- codCompra:int" style="text;strokeColor=none;fillColor=none;align=left;verticalAlign=top;spacingLeft=4;spacingRight=4;overflow=hidden;rotatable=0;points=[[0,0.5],[1,0.5]];portConstraint=eastwest;whiteSpace=wrap;html=1;" vertex="1" parent="BxjMq_bjidp_WkL2_Z5M-59">
          <mxGeometry y="52" width="160" height="26" as="geometry" />
        </mxCell>
        <mxCell id="BxjMq_bjidp_WkL2_Z5M-62" value="- cantProd:int" style="text;strokeColor=none;fillColor=none;align=left;verticalAlign=top;spacingLeft=4;spacingRight=4;overflow=hidden;rotatable=0;points=[[0,0.5],[1,0.5]];portConstraint=eastwest;whiteSpace=wrap;html=1;" vertex="1" parent="BxjMq_bjidp_WkL2_Z5M-59">
          <mxGeometry y="78" width="160" height="26" as="geometry" />
        </mxCell>
        <mxCell id="BxjMq_bjidp_WkL2_Z5M-63" value="- fechaCompra: Fecha" style="text;strokeColor=none;fillColor=none;align=left;verticalAlign=top;spacingLeft=4;spacingRight=4;overflow=hidden;rotatable=0;points=[[0,0.5],[1,0.5]];portConstraint=eastwest;whiteSpace=wrap;html=1;" vertex="1" parent="BxjMq_bjidp_WkL2_Z5M-59">
          <mxGeometry y="104" width="160" height="26" as="geometry" />
        </mxCell>
        <mxCell id="BxjMq_bjidp_WkL2_Z5M-64" value="" style="line;strokeWidth=1;fillColor=none;align=left;verticalAlign=middle;spacingTop=-1;spacingLeft=3;spacingRight=3;rotatable=0;labelPosition=right;points=[];portConstraint=eastwest;strokeColor=inherit;" vertex="1" parent="BxjMq_bjidp_WkL2_Z5M-59">
          <mxGeometry y="130" width="160" height="8" as="geometry" />
        </mxCell>
        <mxCell id="BxjMq_bjidp_WkL2_Z5M-65" value="+ listarInfo():void" style="text;strokeColor=none;fillColor=none;align=left;verticalAlign=top;spacingLeft=4;spacingRight=4;overflow=hidden;rotatable=0;points=[[0,0.5],[1,0.5]];portConstraint=eastwest;whiteSpace=wrap;html=1;" vertex="1" parent="BxjMq_bjidp_WkL2_Z5M-59">
          <mxGeometry y="138" width="160" height="26" as="geometry" />
        </mxCell>
        <mxCell id="BxjMq_bjidp_WkL2_Z5M-66" value="+ calcularTotal():float" style="text;strokeColor=none;fillColor=none;align=left;verticalAlign=top;spacingLeft=4;spacingRight=4;overflow=hidden;rotatable=0;points=[[0,0.5],[1,0.5]];portConstraint=eastwest;whiteSpace=wrap;html=1;" vertex="1" parent="BxjMq_bjidp_WkL2_Z5M-59">
          <mxGeometry y="164" width="160" height="26" as="geometry" />
        </mxCell>
        <mxCell id="BxjMq_bjidp_WkL2_Z5M-67" style="edgeStyle=orthogonalEdgeStyle;rounded=0;orthogonalLoop=1;jettySize=auto;html=1;endArrow=diamondThin;endFill=1;endSize=29;" edge="1" parent="1" source="BxjMq_bjidp_WkL2_Z5M-68" target="BxjMq_bjidp_WkL2_Z5M-3">
          <mxGeometry relative="1" as="geometry" />
        </mxCell>
        <mxCell id="BxjMq_bjidp_WkL2_Z5M-68" value="ProductoBar" style="swimlane;fontStyle=1;align=center;verticalAlign=top;childLayout=stackLayout;horizontal=1;startSize=26;horizontalStack=0;resizeParent=1;resizeParentMax=0;resizeLast=0;collapsible=1;marginBottom=0;whiteSpace=wrap;html=1;" vertex="1" parent="1">
          <mxGeometry x="410" y="-823" width="160" height="216" as="geometry" />
        </mxCell>
        <mxCell id="BxjMq_bjidp_WkL2_Z5M-69" value="- codProducto:string" style="text;strokeColor=none;fillColor=none;align=left;verticalAlign=top;spacingLeft=4;spacingRight=4;overflow=hidden;rotatable=0;points=[[0,0.5],[1,0.5]];portConstraint=eastwest;whiteSpace=wrap;html=1;" vertex="1" parent="BxjMq_bjidp_WkL2_Z5M-68">
          <mxGeometry y="26" width="160" height="26" as="geometry" />
        </mxCell>
        <mxCell id="BxjMq_bjidp_WkL2_Z5M-70" value="- nombre:string" style="text;strokeColor=none;fillColor=none;align=left;verticalAlign=top;spacingLeft=4;spacingRight=4;overflow=hidden;rotatable=0;points=[[0,0.5],[1,0.5]];portConstraint=eastwest;whiteSpace=wrap;html=1;" vertex="1" parent="BxjMq_bjidp_WkL2_Z5M-68">
          <mxGeometry y="52" width="160" height="26" as="geometry" />
        </mxCell>
        <mxCell id="BxjMq_bjidp_WkL2_Z5M-71" value="- descripcion:string" style="text;strokeColor=none;fillColor=none;align=left;verticalAlign=top;spacingLeft=4;spacingRight=4;overflow=hidden;rotatable=0;points=[[0,0.5],[1,0.5]];portConstraint=eastwest;whiteSpace=wrap;html=1;" vertex="1" parent="BxjMq_bjidp_WkL2_Z5M-68">
          <mxGeometry y="78" width="160" height="26" as="geometry" />
        </mxCell>
        <mxCell id="BxjMq_bjidp_WkL2_Z5M-72" value="- precioBase: float" style="text;strokeColor=none;fillColor=none;align=left;verticalAlign=top;spacingLeft=4;spacingRight=4;overflow=hidden;rotatable=0;points=[[0,0.5],[1,0.5]];portConstraint=eastwest;whiteSpace=wrap;html=1;" vertex="1" parent="BxjMq_bjidp_WkL2_Z5M-68">
          <mxGeometry y="104" width="160" height="26" as="geometry" />
        </mxCell>
        <mxCell id="BxjMq_bjidp_WkL2_Z5M-73" value="" style="line;strokeWidth=1;fillColor=none;align=left;verticalAlign=middle;spacingTop=-1;spacingLeft=3;spacingRight=3;rotatable=0;labelPosition=right;points=[];portConstraint=eastwest;strokeColor=inherit;" vertex="1" parent="BxjMq_bjidp_WkL2_Z5M-68">
          <mxGeometry y="130" width="160" height="8" as="geometry" />
        </mxCell>
        <mxCell id="BxjMq_bjidp_WkL2_Z5M-74" value="+ listarInfo():void" style="text;strokeColor=none;fillColor=none;align=left;verticalAlign=top;spacingLeft=4;spacingRight=4;overflow=hidden;rotatable=0;points=[[0,0.5],[1,0.5]];portConstraint=eastwest;whiteSpace=wrap;html=1;" vertex="1" parent="BxjMq_bjidp_WkL2_Z5M-68">
          <mxGeometry y="138" width="160" height="26" as="geometry" />
        </mxCell>
        <mxCell id="BxjMq_bjidp_WkL2_Z5M-75" value="+ getCodigo():string" style="text;strokeColor=none;fillColor=none;align=left;verticalAlign=top;spacingLeft=4;spacingRight=4;overflow=hidden;rotatable=0;points=[[0,0.5],[1,0.5]];portConstraint=eastwest;whiteSpace=wrap;html=1;" vertex="1" parent="BxjMq_bjidp_WkL2_Z5M-68">
          <mxGeometry y="164" width="160" height="26" as="geometry" />
        </mxCell>
        <mxCell id="BxjMq_bjidp_WkL2_Z5M-76" value="+ getPrecioBase():float" style="text;strokeColor=none;fillColor=none;align=left;verticalAlign=top;spacingLeft=4;spacingRight=4;overflow=hidden;rotatable=0;points=[[0,0.5],[1,0.5]];portConstraint=eastwest;whiteSpace=wrap;html=1;" vertex="1" parent="BxjMq_bjidp_WkL2_Z5M-68">
          <mxGeometry y="190" width="160" height="26" as="geometry" />
        </mxCell>
        <mxCell id="BxjMq_bjidp_WkL2_Z5M-77" value="Amenity" style="swimlane;fontStyle=1;align=center;verticalAlign=top;childLayout=stackLayout;horizontal=1;startSize=26;horizontalStack=0;resizeParent=1;resizeParentMax=0;resizeLast=0;collapsible=1;marginBottom=0;whiteSpace=wrap;html=1;" vertex="1" parent="1">
          <mxGeometry x="1000" y="-890" width="710" height="268" as="geometry" />
        </mxCell>
        <mxCell id="BxjMq_bjidp_WkL2_Z5M-78" value="- codigo:string" style="text;strokeColor=none;fillColor=none;align=left;verticalAlign=top;spacingLeft=4;spacingRight=4;overflow=hidden;rotatable=0;points=[[0,0.5],[1,0.5]];portConstraint=eastwest;whiteSpace=wrap;html=1;" vertex="1" parent="BxjMq_bjidp_WkL2_Z5M-77">
          <mxGeometry y="26" width="710" height="26" as="geometry" />
        </mxCell>
        <mxCell id="BxjMq_bjidp_WkL2_Z5M-79" value="- nombre:string" style="text;strokeColor=none;fillColor=none;align=left;verticalAlign=top;spacingLeft=4;spacingRight=4;overflow=hidden;rotatable=0;points=[[0,0.5],[1,0.5]];portConstraint=eastwest;whiteSpace=wrap;html=1;" vertex="1" parent="BxjMq_bjidp_WkL2_Z5M-77">
          <mxGeometry y="52" width="710" height="26" as="geometry" />
        </mxCell>
        <mxCell id="BxjMq_bjidp_WkL2_Z5M-80" value="- descripcion:string" style="text;strokeColor=none;fillColor=none;align=left;verticalAlign=top;spacingLeft=4;spacingRight=4;overflow=hidden;rotatable=0;points=[[0,0.5],[1,0.5]];portConstraint=eastwest;whiteSpace=wrap;html=1;" vertex="1" parent="BxjMq_bjidp_WkL2_Z5M-77">
          <mxGeometry y="78" width="710" height="26" as="geometry" />
        </mxCell>
        <mxCell id="BxjMq_bjidp_WkL2_Z5M-81" value="- precioBase:float" style="text;strokeColor=none;fillColor=none;align=left;verticalAlign=top;spacingLeft=4;spacingRight=4;overflow=hidden;rotatable=0;points=[[0,0.5],[1,0.5]];portConstraint=eastwest;whiteSpace=wrap;html=1;" vertex="1" parent="BxjMq_bjidp_WkL2_Z5M-77">
          <mxGeometry y="104" width="710" height="26" as="geometry" />
        </mxCell>
        <mxCell id="BxjMq_bjidp_WkL2_Z5M-82" value="" style="line;strokeWidth=1;fillColor=none;align=left;verticalAlign=middle;spacingTop=-1;spacingLeft=3;spacingRight=3;rotatable=0;labelPosition=right;points=[];portConstraint=eastwest;strokeColor=inherit;" vertex="1" parent="BxjMq_bjidp_WkL2_Z5M-77">
          <mxGeometry y="130" width="710" height="8" as="geometry" />
        </mxCell>
        <mxCell id="BxjMq_bjidp_WkL2_Z5M-83" value="+ crearReservaAmenity(ame:Amenity, nroHab:int, identHuesped:string, fechaReserva:Fecha, horaReserva:Hora):&amp;nbsp; ReservaAmenity" style="text;strokeColor=none;fillColor=none;align=left;verticalAlign=top;spacingLeft=4;spacingRight=4;overflow=hidden;rotatable=0;points=[[0,0.5],[1,0.5]];portConstraint=eastwest;whiteSpace=wrap;html=1;" vertex="1" parent="BxjMq_bjidp_WkL2_Z5M-77">
          <mxGeometry y="138" width="710" height="26" as="geometry" />
        </mxCell>
        <mxCell id="BxjMq_bjidp_WkL2_Z5M-84" value="+ getNombre(): string" style="text;strokeColor=none;fillColor=none;align=left;verticalAlign=top;spacingLeft=4;spacingRight=4;overflow=hidden;rotatable=0;points=[[0,0.5],[1,0.5]];portConstraint=eastwest;whiteSpace=wrap;html=1;" vertex="1" parent="BxjMq_bjidp_WkL2_Z5M-77">
          <mxGeometry y="164" width="710" height="26" as="geometry" />
        </mxCell>
        <mxCell id="BxjMq_bjidp_WkL2_Z5M-85" value="+ getPrecioBase(): float" style="text;strokeColor=none;fillColor=none;align=left;verticalAlign=top;spacingLeft=4;spacingRight=4;overflow=hidden;rotatable=0;points=[[0,0.5],[1,0.5]];portConstraint=eastwest;whiteSpace=wrap;html=1;" vertex="1" parent="BxjMq_bjidp_WkL2_Z5M-77">
          <mxGeometry y="190" width="710" height="26" as="geometry" />
        </mxCell>
        <mxCell id="BxjMq_bjidp_WkL2_Z5M-86" value="+ listarInfo():void" style="text;strokeColor=none;fillColor=none;align=left;verticalAlign=top;spacingLeft=4;spacingRight=4;overflow=hidden;rotatable=0;points=[[0,0.5],[1,0.5]];portConstraint=eastwest;whiteSpace=wrap;html=1;" vertex="1" parent="BxjMq_bjidp_WkL2_Z5M-77">
          <mxGeometry y="216" width="710" height="26" as="geometry" />
        </mxCell>
        <mxCell id="BxjMq_bjidp_WkL2_Z5M-87" value="+ hayDisponibilidad(fechaReserva:Fecha, horaReserva:Hora):bool" style="text;strokeColor=none;fillColor=none;align=left;verticalAlign=top;spacingLeft=4;spacingRight=4;overflow=hidden;rotatable=0;points=[[0,0.5],[1,0.5]];portConstraint=eastwest;whiteSpace=wrap;html=1;" vertex="1" parent="BxjMq_bjidp_WkL2_Z5M-77">
          <mxGeometry y="242" width="710" height="26" as="geometry" />
        </mxCell>
        <mxCell id="BxjMq_bjidp_WkL2_Z5M-88" style="edgeStyle=orthogonalEdgeStyle;rounded=0;orthogonalLoop=1;jettySize=auto;html=1;endArrow=diamondThin;endFill=0;endSize=29;" edge="1" parent="1" source="BxjMq_bjidp_WkL2_Z5M-89" target="BxjMq_bjidp_WkL2_Z5M-122">
          <mxGeometry relative="1" as="geometry">
            <Array as="points">
              <mxPoint x="2100" y="-451" />
            </Array>
          </mxGeometry>
        </mxCell>
        <mxCell id="BxjMq_bjidp_WkL2_Z5M-89" value="ReservaAmenity" style="swimlane;fontStyle=1;align=center;verticalAlign=top;childLayout=stackLayout;horizontal=1;startSize=26;horizontalStack=0;resizeParent=1;resizeParentMax=0;resizeLast=0;collapsible=1;marginBottom=0;whiteSpace=wrap;html=1;" vertex="1" parent="1">
          <mxGeometry x="1980" y="-858" width="180" height="346" as="geometry" />
        </mxCell>
        <mxCell id="BxjMq_bjidp_WkL2_Z5M-90" value="- &lt;u&gt;autonumerico:int&lt;/u&gt;" style="text;strokeColor=none;fillColor=none;align=left;verticalAlign=top;spacingLeft=4;spacingRight=4;overflow=hidden;rotatable=0;points=[[0,0.5],[1,0.5]];portConstraint=eastwest;whiteSpace=wrap;html=1;" vertex="1" parent="BxjMq_bjidp_WkL2_Z5M-89">
          <mxGeometry y="26" width="180" height="26" as="geometry" />
        </mxCell>
        <mxCell id="BxjMq_bjidp_WkL2_Z5M-91" value="- nroReserva: int" style="text;strokeColor=none;fillColor=none;align=left;verticalAlign=top;spacingLeft=4;spacingRight=4;overflow=hidden;rotatable=0;points=[[0,0.5],[1,0.5]];portConstraint=eastwest;whiteSpace=wrap;html=1;" vertex="1" parent="BxjMq_bjidp_WkL2_Z5M-89">
          <mxGeometry y="52" width="180" height="26" as="geometry" />
        </mxCell>
        <mxCell id="BxjMq_bjidp_WkL2_Z5M-92" value="- nroHabitacion: int" style="text;strokeColor=none;fillColor=none;align=left;verticalAlign=top;spacingLeft=4;spacingRight=4;overflow=hidden;rotatable=0;points=[[0,0.5],[1,0.5]];portConstraint=eastwest;whiteSpace=wrap;html=1;" vertex="1" parent="BxjMq_bjidp_WkL2_Z5M-89">
          <mxGeometry y="78" width="180" height="26" as="geometry" />
        </mxCell>
        <mxCell id="BxjMq_bjidp_WkL2_Z5M-93" value="- identHuesped: string" style="text;strokeColor=none;fillColor=none;align=left;verticalAlign=top;spacingLeft=4;spacingRight=4;overflow=hidden;rotatable=0;points=[[0,0.5],[1,0.5]];portConstraint=eastwest;whiteSpace=wrap;html=1;" vertex="1" parent="BxjMq_bjidp_WkL2_Z5M-89">
          <mxGeometry y="104" width="180" height="26" as="geometry" />
        </mxCell>
        <mxCell id="BxjMq_bjidp_WkL2_Z5M-94" value="- fechaReservada: Fecha" style="text;strokeColor=none;fillColor=none;align=left;verticalAlign=top;spacingLeft=4;spacingRight=4;overflow=hidden;rotatable=0;points=[[0,0.5],[1,0.5]];portConstraint=eastwest;whiteSpace=wrap;html=1;" vertex="1" parent="BxjMq_bjidp_WkL2_Z5M-89">
          <mxGeometry y="130" width="180" height="26" as="geometry" />
        </mxCell>
        <mxCell id="BxjMq_bjidp_WkL2_Z5M-95" value="- horaReservada: Hora" style="text;strokeColor=none;fillColor=none;align=left;verticalAlign=top;spacingLeft=4;spacingRight=4;overflow=hidden;rotatable=0;points=[[0,0.5],[1,0.5]];portConstraint=eastwest;whiteSpace=wrap;html=1;" vertex="1" parent="BxjMq_bjidp_WkL2_Z5M-89">
          <mxGeometry y="156" width="180" height="26" as="geometry" />
        </mxCell>
        <mxCell id="BxjMq_bjidp_WkL2_Z5M-96" value="" style="line;strokeWidth=1;fillColor=none;align=left;verticalAlign=middle;spacingTop=-1;spacingLeft=3;spacingRight=3;rotatable=0;labelPosition=right;points=[];portConstraint=eastwest;strokeColor=inherit;" vertex="1" parent="BxjMq_bjidp_WkL2_Z5M-89">
          <mxGeometry y="182" width="180" height="8" as="geometry" />
        </mxCell>
        <mxCell id="BxjMq_bjidp_WkL2_Z5M-97" value="+ getIdentHuesped():string" style="text;strokeColor=none;fillColor=none;align=left;verticalAlign=top;spacingLeft=4;spacingRight=4;overflow=hidden;rotatable=0;points=[[0,0.5],[1,0.5]];portConstraint=eastwest;whiteSpace=wrap;html=1;" vertex="1" parent="BxjMq_bjidp_WkL2_Z5M-89">
          <mxGeometry y="190" width="180" height="26" as="geometry" />
        </mxCell>
        <mxCell id="BxjMq_bjidp_WkL2_Z5M-98" value="+ getNroHab():int" style="text;strokeColor=none;fillColor=none;align=left;verticalAlign=top;spacingLeft=4;spacingRight=4;overflow=hidden;rotatable=0;points=[[0,0.5],[1,0.5]];portConstraint=eastwest;whiteSpace=wrap;html=1;" vertex="1" parent="BxjMq_bjidp_WkL2_Z5M-89">
          <mxGeometry y="216" width="180" height="26" as="geometry" />
        </mxCell>
        <mxCell id="BxjMq_bjidp_WkL2_Z5M-99" value="+ getFechaReservada():int" style="text;strokeColor=none;fillColor=none;align=left;verticalAlign=top;spacingLeft=4;spacingRight=4;overflow=hidden;rotatable=0;points=[[0,0.5],[1,0.5]];portConstraint=eastwest;whiteSpace=wrap;html=1;" vertex="1" parent="BxjMq_bjidp_WkL2_Z5M-89">
          <mxGeometry y="242" width="180" height="26" as="geometry" />
        </mxCell>
        <mxCell id="BxjMq_bjidp_WkL2_Z5M-100" value="+ getHoraReservada():int" style="text;strokeColor=none;fillColor=none;align=left;verticalAlign=top;spacingLeft=4;spacingRight=4;overflow=hidden;rotatable=0;points=[[0,0.5],[1,0.5]];portConstraint=eastwest;whiteSpace=wrap;html=1;" vertex="1" parent="BxjMq_bjidp_WkL2_Z5M-89">
          <mxGeometry y="268" width="180" height="26" as="geometry" />
        </mxCell>
        <mxCell id="BxjMq_bjidp_WkL2_Z5M-101" value="+ getAmenity():Amenity" style="text;strokeColor=none;fillColor=none;align=left;verticalAlign=top;spacingLeft=4;spacingRight=4;overflow=hidden;rotatable=0;points=[[0,0.5],[1,0.5]];portConstraint=eastwest;whiteSpace=wrap;html=1;" vertex="1" parent="BxjMq_bjidp_WkL2_Z5M-89">
          <mxGeometry y="294" width="180" height="26" as="geometry" />
        </mxCell>
        <mxCell id="BxjMq_bjidp_WkL2_Z5M-102" value="+ listarInfo():void" style="text;strokeColor=none;fillColor=none;align=left;verticalAlign=top;spacingLeft=4;spacingRight=4;overflow=hidden;rotatable=0;points=[[0,0.5],[1,0.5]];portConstraint=eastwest;whiteSpace=wrap;html=1;" vertex="1" parent="BxjMq_bjidp_WkL2_Z5M-89">
          <mxGeometry y="320" width="180" height="26" as="geometry" />
        </mxCell>
        <mxCell id="BxjMq_bjidp_WkL2_Z5M-103" style="edgeStyle=orthogonalEdgeStyle;rounded=0;orthogonalLoop=1;jettySize=auto;html=1;exitX=0.5;exitY=0;exitDx=0;exitDy=0;endArrow=diamondThin;endFill=1;endSize=29;startSize=9;" edge="1" parent="1" source="BxjMq_bjidp_WkL2_Z5M-14" target="BxjMq_bjidp_WkL2_Z5M-3">
          <mxGeometry relative="1" as="geometry">
            <mxPoint x="-120.77999999999997" y="-529.6100000000001" as="targetPoint" />
            <Array as="points">
              <mxPoint x="-210" y="-427" />
              <mxPoint x="-155" y="-427" />
            </Array>
          </mxGeometry>
        </mxCell>
        <mxCell id="BxjMq_bjidp_WkL2_Z5M-104" value="habitaciones" style="text;html=1;align=center;verticalAlign=middle;resizable=0;points=[];autosize=1;strokeColor=none;fillColor=none;rotation=0;" vertex="1" parent="1">
          <mxGeometry x="-251" y="-540" width="90" height="30" as="geometry" />
        </mxCell>
        <mxCell id="BxjMq_bjidp_WkL2_Z5M-105" value="1..*" style="text;html=1;align=center;verticalAlign=middle;resizable=0;points=[];autosize=1;strokeColor=none;fillColor=none;rotation=0;fontSize=12;" vertex="1" parent="1">
          <mxGeometry x="-210" y="-350" width="40" height="30" as="geometry" />
        </mxCell>
        <mxCell id="BxjMq_bjidp_WkL2_Z5M-106" value="Cliente" style="swimlane;fontStyle=1;align=center;verticalAlign=top;childLayout=stackLayout;horizontal=1;startSize=26;horizontalStack=0;resizeParent=1;resizeParentMax=0;resizeLast=0;collapsible=1;marginBottom=0;whiteSpace=wrap;html=1;" vertex="1" parent="1">
          <mxGeometry x="1270" y="-228" width="160" height="398" as="geometry" />
        </mxCell>
        <mxCell id="BxjMq_bjidp_WkL2_Z5M-107" value="- &lt;u&gt;autonumerico:int&lt;/u&gt;" style="text;strokeColor=none;fillColor=none;align=left;verticalAlign=top;spacingLeft=4;spacingRight=4;overflow=hidden;rotatable=0;points=[[0,0.5],[1,0.5]];portConstraint=eastwest;whiteSpace=wrap;html=1;" vertex="1" parent="BxjMq_bjidp_WkL2_Z5M-106">
          <mxGeometry y="26" width="160" height="26" as="geometry" />
        </mxCell>
        <mxCell id="BxjMq_bjidp_WkL2_Z5M-108" value="- codigo:string" style="text;strokeColor=none;fillColor=none;align=left;verticalAlign=top;spacingLeft=4;spacingRight=4;overflow=hidden;rotatable=0;points=[[0,0.5],[1,0.5]];portConstraint=eastwest;whiteSpace=wrap;html=1;" vertex="1" parent="BxjMq_bjidp_WkL2_Z5M-106">
          <mxGeometry y="52" width="160" height="26" as="geometry" />
        </mxCell>
        <mxCell id="BxjMq_bjidp_WkL2_Z5M-109" value="- nombre:string" style="text;strokeColor=none;fillColor=none;align=left;verticalAlign=top;spacingLeft=4;spacingRight=4;overflow=hidden;rotatable=0;points=[[0,0.5],[1,0.5]];portConstraint=eastwest;whiteSpace=wrap;html=1;" vertex="1" parent="BxjMq_bjidp_WkL2_Z5M-106">
          <mxGeometry y="78" width="160" height="26" as="geometry" />
        </mxCell>
        <mxCell id="BxjMq_bjidp_WkL2_Z5M-110" value="- apellido:string" style="text;strokeColor=none;fillColor=none;align=left;verticalAlign=top;spacingLeft=4;spacingRight=4;overflow=hidden;rotatable=0;points=[[0,0.5],[1,0.5]];portConstraint=eastwest;whiteSpace=wrap;html=1;" vertex="1" parent="BxjMq_bjidp_WkL2_Z5M-106">
          <mxGeometry y="104" width="160" height="26" as="geometry" />
        </mxCell>
        <mxCell id="BxjMq_bjidp_WkL2_Z5M-111" value="- identificacion:string" style="text;strokeColor=none;fillColor=none;align=left;verticalAlign=top;spacingLeft=4;spacingRight=4;overflow=hidden;rotatable=0;points=[[0,0.5],[1,0.5]];portConstraint=eastwest;whiteSpace=wrap;html=1;" vertex="1" parent="BxjMq_bjidp_WkL2_Z5M-106">
          <mxGeometry y="130" width="160" height="26" as="geometry" />
        </mxCell>
        <mxCell id="BxjMq_bjidp_WkL2_Z5M-112" value="- tipoIdentificacion:string" style="text;strokeColor=none;fillColor=none;align=left;verticalAlign=top;spacingLeft=4;spacingRight=4;overflow=hidden;rotatable=0;points=[[0,0.5],[1,0.5]];portConstraint=eastwest;whiteSpace=wrap;html=1;" vertex="1" parent="BxjMq_bjidp_WkL2_Z5M-106">
          <mxGeometry y="156" width="160" height="26" as="geometry" />
        </mxCell>
        <mxCell id="BxjMq_bjidp_WkL2_Z5M-113" value="- nacionalidad:string" style="text;strokeColor=none;fillColor=none;align=left;verticalAlign=top;spacingLeft=4;spacingRight=4;overflow=hidden;rotatable=0;points=[[0,0.5],[1,0.5]];portConstraint=eastwest;whiteSpace=wrap;html=1;" vertex="1" parent="BxjMq_bjidp_WkL2_Z5M-106">
          <mxGeometry y="182" width="160" height="26" as="geometry" />
        </mxCell>
        <mxCell id="BxjMq_bjidp_WkL2_Z5M-114" value="- provCiudad:string" style="text;strokeColor=none;fillColor=none;align=left;verticalAlign=top;spacingLeft=4;spacingRight=4;overflow=hidden;rotatable=0;points=[[0,0.5],[1,0.5]];portConstraint=eastwest;whiteSpace=wrap;html=1;" vertex="1" parent="BxjMq_bjidp_WkL2_Z5M-106">
          <mxGeometry y="208" width="160" height="26" as="geometry" />
        </mxCell>
        <mxCell id="BxjMq_bjidp_WkL2_Z5M-115" value="- email:string" style="text;strokeColor=none;fillColor=none;align=left;verticalAlign=top;spacingLeft=4;spacingRight=4;overflow=hidden;rotatable=0;points=[[0,0.5],[1,0.5]];portConstraint=eastwest;whiteSpace=wrap;html=1;" vertex="1" parent="BxjMq_bjidp_WkL2_Z5M-106">
          <mxGeometry y="234" width="160" height="26" as="geometry" />
        </mxCell>
        <mxCell id="BxjMq_bjidp_WkL2_Z5M-116" value="- domicilio:string" style="text;strokeColor=none;fillColor=none;align=left;verticalAlign=top;spacingLeft=4;spacingRight=4;overflow=hidden;rotatable=0;points=[[0,0.5],[1,0.5]];portConstraint=eastwest;whiteSpace=wrap;html=1;" vertex="1" parent="BxjMq_bjidp_WkL2_Z5M-106">
          <mxGeometry y="260" width="160" height="26" as="geometry" />
        </mxCell>
        <mxCell id="BxjMq_bjidp_WkL2_Z5M-117" value="- patenteVeh:string" style="text;strokeColor=none;fillColor=none;align=left;verticalAlign=top;spacingLeft=4;spacingRight=4;overflow=hidden;rotatable=0;points=[[0,0.5],[1,0.5]];portConstraint=eastwest;whiteSpace=wrap;html=1;" vertex="1" parent="BxjMq_bjidp_WkL2_Z5M-106">
          <mxGeometry y="286" width="160" height="26" as="geometry" />
        </mxCell>
        <mxCell id="BxjMq_bjidp_WkL2_Z5M-118" value="- nroCelular:string" style="text;strokeColor=none;fillColor=none;align=left;verticalAlign=top;spacingLeft=4;spacingRight=4;overflow=hidden;rotatable=0;points=[[0,0.5],[1,0.5]];portConstraint=eastwest;whiteSpace=wrap;html=1;" vertex="1" parent="BxjMq_bjidp_WkL2_Z5M-106">
          <mxGeometry y="312" width="160" height="26" as="geometry" />
        </mxCell>
        <mxCell id="BxjMq_bjidp_WkL2_Z5M-119" value="" style="line;strokeWidth=1;fillColor=none;align=left;verticalAlign=middle;spacingTop=-1;spacingLeft=3;spacingRight=3;rotatable=0;labelPosition=right;points=[];portConstraint=eastwest;strokeColor=inherit;" vertex="1" parent="BxjMq_bjidp_WkL2_Z5M-106">
          <mxGeometry y="338" width="160" height="8" as="geometry" />
        </mxCell>
        <mxCell id="BxjMq_bjidp_WkL2_Z5M-120" value="+ getIdentificacion():string" style="text;strokeColor=none;fillColor=none;align=left;verticalAlign=top;spacingLeft=4;spacingRight=4;overflow=hidden;rotatable=0;points=[[0,0.5],[1,0.5]];portConstraint=eastwest;whiteSpace=wrap;html=1;" vertex="1" parent="BxjMq_bjidp_WkL2_Z5M-106">
          <mxGeometry y="346" width="160" height="26" as="geometry" />
        </mxCell>
        <mxCell id="BxjMq_bjidp_WkL2_Z5M-121" value="+ listarInfo():void" style="text;strokeColor=none;fillColor=none;align=left;verticalAlign=top;spacingLeft=4;spacingRight=4;overflow=hidden;rotatable=0;points=[[0,0.5],[1,0.5]];portConstraint=eastwest;whiteSpace=wrap;html=1;" vertex="1" parent="BxjMq_bjidp_WkL2_Z5M-106">
          <mxGeometry y="372" width="160" height="26" as="geometry" />
        </mxCell>
        <mxCell id="BxjMq_bjidp_WkL2_Z5M-122" value="Consumo" style="swimlane;fontStyle=1;align=center;verticalAlign=top;childLayout=stackLayout;horizontal=1;startSize=26;horizontalStack=0;resizeParent=1;resizeParentMax=0;resizeLast=0;collapsible=1;marginBottom=0;whiteSpace=wrap;html=1;" vertex="1" parent="1">
          <mxGeometry x="750" y="-570" width="410" height="190" as="geometry" />
        </mxCell>
        <mxCell id="BxjMq_bjidp_WkL2_Z5M-123" value="" style="line;strokeWidth=1;fillColor=none;align=left;verticalAlign=middle;spacingTop=-1;spacingLeft=3;spacingRight=3;rotatable=0;labelPosition=right;points=[];portConstraint=eastwest;strokeColor=inherit;" vertex="1" parent="BxjMq_bjidp_WkL2_Z5M-122">
          <mxGeometry y="26" width="410" height="8" as="geometry" />
        </mxCell>
        <mxCell id="BxjMq_bjidp_WkL2_Z5M-124" value="+ agregarReservaAmenity(reserva:ReservaAmenity): void" style="text;strokeColor=none;fillColor=none;align=left;verticalAlign=top;spacingLeft=4;spacingRight=4;overflow=hidden;rotatable=0;points=[[0,0.5],[1,0.5]];portConstraint=eastwest;whiteSpace=wrap;html=1;" vertex="1" parent="BxjMq_bjidp_WkL2_Z5M-122">
          <mxGeometry y="34" width="410" height="26" as="geometry" />
        </mxCell>
        <mxCell id="BxjMq_bjidp_WkL2_Z5M-125" value="+ crearCompra(prod:ProductoBar, cantProd:int, fechaCompra:Fecha): void" style="text;strokeColor=none;fillColor=none;align=left;verticalAlign=top;spacingLeft=4;spacingRight=4;overflow=hidden;rotatable=0;points=[[0,0.5],[1,0.5]];portConstraint=eastwest;whiteSpace=wrap;html=1;" vertex="1" parent="BxjMq_bjidp_WkL2_Z5M-122">
          <mxGeometry y="60" width="410" height="26" as="geometry" />
        </mxCell>
        <mxCell id="BxjMq_bjidp_WkL2_Z5M-126" value="- imprimirComprasRealizadas():void" style="text;strokeColor=none;fillColor=none;align=left;verticalAlign=top;spacingLeft=4;spacingRight=4;overflow=hidden;rotatable=0;points=[[0,0.5],[1,0.5]];portConstraint=eastwest;whiteSpace=wrap;html=1;" vertex="1" parent="BxjMq_bjidp_WkL2_Z5M-122">
          <mxGeometry y="86" width="410" height="26" as="geometry" />
        </mxCell>
        <mxCell id="BxjMq_bjidp_WkL2_Z5M-127" value="- imprimirReservasAmenities():void" style="text;strokeColor=none;fillColor=none;align=left;verticalAlign=top;spacingLeft=4;spacingRight=4;overflow=hidden;rotatable=0;points=[[0,0.5],[1,0.5]];portConstraint=eastwest;whiteSpace=wrap;html=1;" vertex="1" parent="BxjMq_bjidp_WkL2_Z5M-122">
          <mxGeometry y="112" width="410" height="26" as="geometry" />
        </mxCell>
        <mxCell id="BxjMq_bjidp_WkL2_Z5M-128" value="+ imprimirFacturaConsumo():void" style="text;strokeColor=none;fillColor=none;align=left;verticalAlign=top;spacingLeft=4;spacingRight=4;overflow=hidden;rotatable=0;points=[[0,0.5],[1,0.5]];portConstraint=eastwest;whiteSpace=wrap;html=1;" vertex="1" parent="BxjMq_bjidp_WkL2_Z5M-122">
          <mxGeometry y="138" width="410" height="26" as="geometry" />
        </mxCell>
        <mxCell id="BxjMq_bjidp_WkL2_Z5M-129" value="+ calcularConsumos():float" style="text;strokeColor=none;fillColor=none;align=left;verticalAlign=top;spacingLeft=4;spacingRight=4;overflow=hidden;rotatable=0;points=[[0,0.5],[1,0.5]];portConstraint=eastwest;whiteSpace=wrap;html=1;" vertex="1" parent="BxjMq_bjidp_WkL2_Z5M-122">
          <mxGeometry y="164" width="410" height="26" as="geometry" />
        </mxCell>
        <mxCell id="BxjMq_bjidp_WkL2_Z5M-130" style="edgeStyle=orthogonalEdgeStyle;rounded=0;orthogonalLoop=1;jettySize=auto;html=1;endArrow=none;endFill=0;endSize=6;startArrow=diamondThin;startFill=1;startSize=29;" edge="1" parent="1" source="BxjMq_bjidp_WkL2_Z5M-30" target="BxjMq_bjidp_WkL2_Z5M-122">
          <mxGeometry relative="1" as="geometry">
            <Array as="points">
              <mxPoint x="665" y="-310" />
              <mxPoint x="940" y="-310" />
            </Array>
            <mxPoint x="663.97" y="-301.01" as="sourcePoint" />
            <mxPoint x="939.9985714285715" y="-353.01" as="targetPoint" />
          </mxGeometry>
        </mxCell>
        <mxCell id="BxjMq_bjidp_WkL2_Z5M-131" value="reservasAmenities" style="text;html=1;align=center;verticalAlign=middle;resizable=0;points=[];autosize=1;strokeColor=none;fillColor=none;rotation=0;" vertex="1" parent="1">
          <mxGeometry x="1170" y="-490" width="120" height="30" as="geometry" />
        </mxCell>
        <mxCell id="BxjMq_bjidp_WkL2_Z5M-132" style="edgeStyle=orthogonalEdgeStyle;rounded=0;orthogonalLoop=1;jettySize=auto;html=1;exitX=1;exitY=0.5;exitDx=0;exitDy=0;endArrow=none;endFill=0;startArrow=diamondThin;startFill=0;startSize=29;" edge="1" parent="1" source="BxjMq_bjidp_WkL2_Z5M-42" target="BxjMq_bjidp_WkL2_Z5M-118">
          <mxGeometry relative="1" as="geometry" />
        </mxCell>
        <mxCell id="BxjMq_bjidp_WkL2_Z5M-133" style="edgeStyle=orthogonalEdgeStyle;rounded=0;orthogonalLoop=1;jettySize=auto;html=1;exitX=1;exitY=0.5;exitDx=0;exitDy=0;entryX=0.001;entryY=0.194;entryDx=0;entryDy=0;entryPerimeter=0;startArrow=diamondThin;startFill=0;endArrow=none;endFill=0;startSize=29;endSize=6;" edge="1" parent="1" source="BxjMq_bjidp_WkL2_Z5M-38" target="BxjMq_bjidp_WkL2_Z5M-111">
          <mxGeometry relative="1" as="geometry" />
        </mxCell>
        <mxCell id="BxjMq_bjidp_WkL2_Z5M-134" value="titular" style="text;html=1;align=center;verticalAlign=middle;resizable=0;points=[];autosize=1;strokeColor=none;fillColor=none;" vertex="1" parent="1">
          <mxGeometry x="915" y="-40" width="50" height="30" as="geometry" />
        </mxCell>
        <mxCell id="BxjMq_bjidp_WkL2_Z5M-135" value="acompanantes" style="text;html=1;align=center;verticalAlign=middle;resizable=0;points=[];autosize=1;strokeColor=none;fillColor=none;" vertex="1" parent="1">
          <mxGeometry x="915" y="50" width="100" height="30" as="geometry" />
        </mxCell>
        <mxCell id="BxjMq_bjidp_WkL2_Z5M-136" value="1" style="text;html=1;align=center;verticalAlign=middle;resizable=0;points=[];autosize=1;strokeColor=none;fillColor=none;fontSize=15;" vertex="1" parent="1">
          <mxGeometry x="1240" y="-90" width="30" height="30" as="geometry" />
        </mxCell>
        <mxCell id="BxjMq_bjidp_WkL2_Z5M-137" value="0...*" style="text;html=1;align=center;verticalAlign=middle;resizable=0;points=[];autosize=1;strokeColor=none;fillColor=none;fontSize=15;" vertex="1" parent="1">
          <mxGeometry x="1220" y="100" width="50" height="30" as="geometry" />
        </mxCell>
        <mxCell id="BxjMq_bjidp_WkL2_Z5M-138" value="1..*" style="text;html=1;align=center;verticalAlign=middle;resizable=0;points=[];autosize=1;strokeColor=none;fillColor=none;" vertex="1" parent="1">
          <mxGeometry x="2100" y="-512" width="40" height="30" as="geometry" />
        </mxCell>
        <mxCell id="BxjMq_bjidp_WkL2_Z5M-139" style="edgeStyle=orthogonalEdgeStyle;rounded=0;orthogonalLoop=1;jettySize=auto;html=1;entryX=1;entryY=0.5;entryDx=0;entryDy=0;endArrow=none;endFill=0;endSize=12;" edge="1" parent="1" source="BxjMq_bjidp_WkL2_Z5M-89" target="BxjMq_bjidp_WkL2_Z5M-81">
          <mxGeometry relative="1" as="geometry" />
        </mxCell>
        <mxCell id="BxjMq_bjidp_WkL2_Z5M-140" value="0..*" style="text;html=1;align=center;verticalAlign=middle;resizable=0;points=[];autosize=1;strokeColor=none;fillColor=none;" vertex="1" parent="1">
          <mxGeometry x="1930" y="-680" width="40" height="30" as="geometry" />
        </mxCell>
        <mxCell id="BxjMq_bjidp_WkL2_Z5M-141" value="1" style="text;html=1;align=center;verticalAlign=middle;resizable=0;points=[];autosize=1;strokeColor=none;fillColor=none;" vertex="1" parent="1">
          <mxGeometry x="1720" y="-767" width="30" height="30" as="geometry" />
        </mxCell>
        <mxCell id="BxjMq_bjidp_WkL2_Z5M-142" style="edgeStyle=orthogonalEdgeStyle;rounded=0;orthogonalLoop=1;jettySize=auto;html=1;endArrow=none;endFill=0;" edge="1" parent="1" source="BxjMq_bjidp_WkL2_Z5M-14" target="BxjMq_bjidp_WkL2_Z5M-30">
          <mxGeometry relative="1" as="geometry">
            <Array as="points">
              <mxPoint x="257" y="-130" />
              <mxPoint x="257" y="129" />
            </Array>
          </mxGeometry>
        </mxCell>
        <mxCell id="BxjMq_bjidp_WkL2_Z5M-143" value="0..*" style="text;html=1;align=center;verticalAlign=middle;resizable=0;points=[];autosize=1;strokeColor=none;fillColor=none;" vertex="1" parent="1">
          <mxGeometry x="380" y="130" width="40" height="30" as="geometry" />
        </mxCell>
        <mxCell id="BxjMq_bjidp_WkL2_Z5M-144" value="1" style="text;html=1;align=center;verticalAlign=middle;resizable=0;points=[];autosize=1;strokeColor=none;fillColor=none;" vertex="1" parent="1">
          <mxGeometry x="120" y="-130" width="30" height="30" as="geometry" />
        </mxCell>
        <mxCell id="BxjMq_bjidp_WkL2_Z5M-145" value="amenity&amp;nbsp;" style="text;html=1;align=center;verticalAlign=middle;resizable=0;points=[];autosize=1;strokeColor=none;fillColor=none;fontSize=16;" vertex="1" parent="1">
          <mxGeometry x="1895" y="-770" width="80" height="30" as="geometry" />
        </mxCell>
        <mxCell id="BxjMq_bjidp_WkL2_Z5M-146" value="reservas" style="text;html=1;align=center;verticalAlign=middle;resizable=0;points=[];autosize=1;strokeColor=none;fillColor=none;fontSize=15;" vertex="1" parent="1">
          <mxGeometry x="1720" y="-810" width="80" height="30" as="geometry" />
        </mxCell>
        <mxCell id="BxjMq_bjidp_WkL2_Z5M-147" value="habitacion" style="text;html=1;align=center;verticalAlign=middle;resizable=0;points=[];autosize=1;strokeColor=none;fillColor=none;fontSize=16;" vertex="1" parent="1">
          <mxGeometry x="324" y="90" width="100" height="30" as="geometry" />
        </mxCell>
        <mxCell id="BxjMq_bjidp_WkL2_Z5M-148" value="reservas" style="text;html=1;align=center;verticalAlign=middle;resizable=0;points=[];autosize=1;strokeColor=none;fillColor=none;fontSize=15;" vertex="1" parent="1">
          <mxGeometry x="120" y="-170" width="80" height="30" as="geometry" />
        </mxCell>
        <mxCell id="BxjMq_bjidp_WkL2_Z5M-149" value="amenities" style="text;html=1;align=center;verticalAlign=middle;resizable=0;points=[];autosize=1;strokeColor=none;fillColor=none;" vertex="1" parent="1">
          <mxGeometry x="-140" y="-920" width="70" height="30" as="geometry" />
        </mxCell>
        <mxCell id="BxjMq_bjidp_WkL2_Z5M-150" value="0...*" style="text;html=1;align=center;verticalAlign=middle;resizable=0;points=[];autosize=1;strokeColor=none;fillColor=none;" vertex="1" parent="1">
          <mxGeometry x="370" y="-710" width="40" height="30" as="geometry" />
        </mxCell>
        <mxCell id="BxjMq_bjidp_WkL2_Z5M-151" value="1" style="text;html=1;align=center;verticalAlign=middle;resizable=0;points=[];autosize=1;strokeColor=none;fillColor=none;" vertex="1" parent="1">
          <mxGeometry x="230" y="-730" width="30" height="30" as="geometry" />
        </mxCell>
        <mxCell id="BxjMq_bjidp_WkL2_Z5M-152" value="1" style="text;html=1;align=center;verticalAlign=middle;resizable=0;points=[];autosize=1;strokeColor=none;fillColor=none;" vertex="1" parent="1">
          <mxGeometry x="570" y="-710" width="30" height="30" as="geometry" />
        </mxCell>
        <mxCell id="BxjMq_bjidp_WkL2_Z5M-153" value="0...*" style="text;html=1;align=center;verticalAlign=middle;resizable=0;points=[];autosize=1;strokeColor=none;fillColor=none;" vertex="1" parent="1">
          <mxGeometry x="641" y="-722" width="40" height="30" as="geometry" />
        </mxCell>
        <mxCell id="BxjMq_bjidp_WkL2_Z5M-154" value="producto" style="text;html=1;align=center;verticalAlign=middle;resizable=0;points=[];autosize=1;strokeColor=none;fillColor=none;" vertex="1" parent="1">
          <mxGeometry x="610" y="-760" width="70" height="30" as="geometry" />
        </mxCell>
        <mxCell id="BxjMq_bjidp_WkL2_Z5M-155" value="0...*" style="text;html=1;align=center;verticalAlign=middle;resizable=0;points=[];autosize=1;strokeColor=none;fillColor=none;" vertex="1" parent="1">
          <mxGeometry x="850" y="-730" width="40" height="30" as="geometry" />
        </mxCell>
        <mxCell id="BxjMq_bjidp_WkL2_Z5M-156" value="1" style="text;html=1;align=center;verticalAlign=middle;resizable=0;points=[];autosize=1;strokeColor=none;fillColor=none;" vertex="1" parent="1">
          <mxGeometry x="905" y="-600" width="30" height="30" as="geometry" />
        </mxCell>
        <mxCell id="BxjMq_bjidp_WkL2_Z5M-157" value="compras" style="text;html=1;align=center;verticalAlign=middle;resizable=0;points=[];autosize=1;strokeColor=none;fillColor=none;" vertex="1" parent="1">
          <mxGeometry x="950" y="-600" width="70" height="30" as="geometry" />
        </mxCell>
        <mxCell id="BxjMq_bjidp_WkL2_Z5M-158" value="consumo" style="text;html=1;align=center;verticalAlign=middle;resizable=0;points=[];autosize=1;strokeColor=none;fillColor=none;" vertex="1" parent="1">
          <mxGeometry x="660" y="-342" width="70" height="30" as="geometry" />
        </mxCell>
        <mxCell id="BxjMq_bjidp_WkL2_Z5M-159" value="reservasHabitaciones" style="text;html=1;align=center;verticalAlign=middle;resizable=0;points=[];autosize=1;strokeColor=none;fillColor=none;" vertex="1" parent="1">
          <mxGeometry x="10" y="-562" width="140" height="30" as="geometry" />
        </mxCell>
        <mxCell id="BxjMq_bjidp_WkL2_Z5M-160" value="1" style="text;html=1;align=center;verticalAlign=middle;resizable=0;points=[];autosize=1;strokeColor=none;fillColor=none;" vertex="1" parent="1">
          <mxGeometry x="-200" y="-600" width="30" height="30" as="geometry" />
        </mxCell>
        <mxCell id="BxjMq_bjidp_WkL2_Z5M-161" value="1" style="text;html=1;align=center;verticalAlign=middle;resizable=0;points=[];autosize=1;strokeColor=none;fillColor=none;" vertex="1" parent="1">
          <mxGeometry x="-30" y="-592" width="30" height="30" as="geometry" />
        </mxCell>
        <mxCell id="BxjMq_bjidp_WkL2_Z5M-162" value="0...*" style="text;html=1;align=center;verticalAlign=middle;resizable=0;points=[];autosize=1;strokeColor=none;fillColor=none;" vertex="1" parent="1">
          <mxGeometry x="440" y="-300" width="40" height="30" as="geometry" />
        </mxCell>
        <mxCell id="BxjMq_bjidp_WkL2_Z5M-163" value="1" style="text;html=1;align=center;verticalAlign=middle;resizable=0;points=[];autosize=1;strokeColor=none;fillColor=none;" vertex="1" parent="1">
          <mxGeometry x="940" y="-380" width="30" height="30" as="geometry" />
        </mxCell>
        <mxCell id="BxjMq_bjidp_WkL2_Z5M-164" value="1" style="text;html=1;align=center;verticalAlign=middle;resizable=0;points=[];autosize=1;strokeColor=none;fillColor=none;" vertex="1" parent="1">
          <mxGeometry x="680" y="-300" width="30" height="30" as="geometry" />
        </mxCell>
        <mxCell id="BxjMq_bjidp_WkL2_Z5M-165" value="productos" style="text;html=1;align=center;verticalAlign=middle;resizable=0;points=[];autosize=1;strokeColor=none;fillColor=none;" vertex="1" parent="1">
          <mxGeometry x="244" y="-790" width="80" height="30" as="geometry" />
        </mxCell>
        <mxCell id="BxjMq_bjidp_WkL2_Z5M-166" value="1..*" style="text;html=1;align=center;verticalAlign=middle;resizable=0;points=[];autosize=1;strokeColor=none;fillColor=none;" vertex="1" parent="1">
          <mxGeometry x="1315" y="-920" width="40" height="30" as="geometry" />
        </mxCell>
      </root>
    </mxGraphModel>
  </diagram>
</mxfile>
